<?xml version="1.0"?>
<svg xmlns="http://www.w3.org/2000/svg" id="Capa_1" enable-background="new 0 0 505.63 505.63" height="512px" viewBox="0 0 505.63 505.63" width="512px"><g><g><path d="m443.01 17.749c-18.416 0-35.889 8.169-47.717 22.078-10.917-6.163-23.513-8.395-36.05-6.282-14.471 2.439-27.126 10.369-35.633 22.326-4.463 6.272-13.03 15.912-3.747 22.517l82.409 58.63c9.172 6.525 15.574-4.641 20.043-10.922 8.507-11.958 11.849-26.513 9.409-40.984-2.269-13.461-9.294-25.346-19.888-33.788 8.001-8.577 19.296-13.574 31.174-13.574 23.501 0 42.62 19.119 42.62 42.62v54.332c0 12.84 20 12.859 20 0v-54.333c0-34.529-28.091-62.62-62.62-62.62zm-36.991 96.752-.301.422-66.112-47.036.302-.423c5.41-7.604 13.458-12.647 22.661-14.199 20.126-3.392 46.03 14.978 49.435 35.17 1.551 9.204-.574 18.461-5.985 26.066z" data-original="#000000" class="active-path" data-old_color="#000000" fill="#F2BA4D"/><path d="m10 239.465c-5.522 0-10 4.477-10 10v102.065c0 19.39 6.462 38.571 18.194 54.008 13.856 18.231 34.395 30.385 56.745 34.066l-5.006 12.463c-10.793 26.872 25.568 48.646 44.287 26.999l33.102-38.278h214.278l33.102 38.278c18.682 21.606 55.104-.064 44.287-26.999l-5.23-13.02c21.156-4.25 40.458-16.114 53.677-33.508 11.732-15.438 18.193-34.619 18.193-54.008v-134.724c0-12.84-20-12.859-20 0v22.659h-475.629zm475.63 58.264h-292.604v-38.264h292.604zm-312.604-38.264v105.162h-74.152v-105.162zm-94.152 0v38.264h-58.874v-38.264zm20.218 206.52c-4.369 5.05-13.237.106-10.6-6.462l7.525-18.734h24.863zm320.713-.592c-2.285 3.376-7.318 3.662-9.974.592l-21.789-25.196h24.863l7.525 18.734c1.125 2.798-.063 5.037-.625 5.87zm51.708-71.955c-13.016 17.126-33.629 27.351-55.14 27.351h-327.115c-21.511 0-42.124-10.225-55.14-27.351-9.104-11.98-14.118-26.862-14.118-41.907v-33.802h58.874v56.898c0 5.523 4.478 10 10 10h94.152c5.522 0 10-4.477 10-10v-56.898h292.604v33.802c0 15.045-5.014 29.927-14.117 41.907z" data-original="#000000" class="active-path" data-old_color="#000000" fill="#F2BA4D"/><path d="m491.804 184.906c3.927 1.635 8.621.528 11.398-2.7 2.723-3.166 3.18-7.823 1.124-11.455-2.099-3.707-6.466-5.727-10.651-4.885-4.088.823-7.324 4.208-7.934 8.339-.666 4.496 1.876 8.955 6.063 10.701z" data-original="#000000" class="active-path" data-old_color="#000000" fill="#F2BA4D"/></g></g> </svg>
