<?xml version="1.0" encoding="utf-8"?>
<!-- Generator: Adobe Illustrator 16.0.0, SVG Export Plug-In . SVG Version: 6.00 Build 0)  -->
<!DOCTYPE svg PUBLIC "-//W3C//DTD SVG 1.1//EN" "http://www.w3.org/Graphics/SVG/1.1/DTD/svg11.dtd">
<svg version="1.1" id="Capa_1" xmlns="http://www.w3.org/2000/svg" xmlns:xlink="http://www.w3.org/1999/xlink" x="0px" y="0px"
	 width="512px" height="512px" viewBox="0 0 512 512" enable-background="new 0 0 512 512" xml:space="preserve">
<g>
	<path fill="#FFFFFF" d="M185.255,512c-76.2-0.439-139.232-155.991-139.232-235.21c0-129.404,97.075-157.734,134.486-157.734
		c16.86,0,34.863,6.621,50.742,12.48c11.104,4.087,22.588,8.306,28.976,8.306c3.822,0,12.832-3.589,20.786-6.738
		c16.963-6.753,38.071-15.146,62.65-15.146c0.044,0,0.104,0,0.146,0c18.354,0,74.004,4.028,107.461,54.272l7.837,11.777
		l-11.279,8.511c-16.112,12.158-45.513,34.336-45.513,78.267c0,52.031,33.296,72.041,49.292,81.665
		c7.062,4.247,14.37,8.628,14.37,18.208c0,6.255-49.922,140.565-122.417,140.565c-17.739,0-30.278-5.332-41.338-10.033
		c-11.191-4.762-20.846-8.862-36.798-8.862c-8.086,0-18.311,3.823-29.136,7.881C221.496,505.73,204.752,512,185.753,512H185.255z"/>
	<path fill="#FFFFFF" d="M351.344,0c1.888,68.076-46.797,115.304-95.426,112.342C247.905,58.015,304.54,0,351.344,0z"/>
</g>
</svg>
